<mxfile host="app.diagrams.net" modified="2021-01-04T06:48:20.436Z" agent="5.0 (Windows)" etag="XdxS24xrI9dqWR4aOEWp" version="14.1.8" type="github">
  <diagram id="JdHJIA1Du-mLfrVU5SKp" name="Page-1">
    <mxGraphModel dx="1016" dy="617" grid="1" gridSize="10" guides="1" tooltips="1" connect="1" arrows="1" fold="1" page="1" pageScale="1" pageWidth="827" pageHeight="1169" math="0" shadow="0">
      <root>
        <mxCell id="0" />
        <mxCell id="1" parent="0" />
        <mxCell id="r0HrAS1YgWzg4IYTFcv2-1" value="" style="shape=image;imageAspect=0;aspect=fixed;verticalLabelPosition=bottom;verticalAlign=top;image=data:image/jpeg,/9j/4AAQSkZJRgABAQEAYABgAAD/2wBDAAMCAgMCAgMDAwMEAwMEBQgFBQQEBQoHBwYIDAoMDAsKCwsNDhIQDQ4RDgsLEBYQERMUFRUVDA8XGBYUGBIUFRT/2wBDAQMEBAUEBQkFBQkUDQsNFBQUFBQUFBQUFBQUFBQUFBQUFBQUFBQUFBQUFBQUFBQUFBQUFBQUFBQUFBQUFBQUFBT/wAARCAL7ANQDASIAAhEBAxEB/8QAHwAAAQUBAQEBAQEAAAAAAAAAAAECAwQFBgcICQoL/8QAtRAAAgEDAwIEAwUFBAQAAAF9AQIDAAQRBRIhMUEGE1FhByJxFDKBkaEII0KxwRVS0fAkM2JyggkKFhcYGRolJicoKSo0NTY3ODk6Q0RFRkdISUpTVFVWV1hZWmNkZWZnaGlqc3R1dnd4eXqDhIWGh4iJipKTlJWWl5iZmqKjpKWmp6ipqrKztLW2t7i5usLDxMXGx8jJytLT1NXW19jZ2uHi4+Tl5ufo6erx8vP09fb3+Pn6/8QAHwEAAwEBAQEBAQEBAQAAAAAAAAECAwQFBgcICQoL/8QAtREAAgECBAQDBAcFBAQAAQJ3AAECAxEEBSExBhJBUQdhcRMiMoEIFEKRobHBCSMzUvAVYnLRChYkNOEl8RcYGRomJygpKjU2Nzg5OkNERUZHSElKU1RVVldYWVpjZGVmZ2hpanN0dXZ3eHl6goOEhYaHiImKkpOUlZaXmJmaoqOkpaanqKmqsrO0tba3uLm6wsPExcbHyMnK0tPU1dbX2Nna4uPk5ebn6Onq8vP09fb3+Pn6/9oADAMBAAIRAxEAPwD9U6KKKACiiigAooooAKKKKACiiigAooooAKKSloAKKKKACiiigAooooAKKKKACiiigAooooAKKKKACiiigAooooAKKKKACiiigAooooAKKKKAMq116xvtYvtKhl33tkkUk8e0jasm7Yc4wc7W6elaVcH4Xsbi3+KnjS5khkS3mtbBYpmUhHK+duCnocZGcdMiu94qIttXZ0V6cac1GLurJ/NpN/iLS0UVZzhRRRQAUUUUAFFFFABRRRQAUUUUAFFFFABRRRQAUUUUAFFFFABRRRQAU1uFJp1Nf7prOXwsDHiuL+4k3R+UId7LznPBI/pXnv7Rl94y0z4O65P4QnmttaaS0i+02ds9xPbWr3cKXc0caBmZo7dpnARWbK/KCcA3NS/aD+F3gfUrrRvEfxL8IaBq9tI3n6fqmu2ttcRbjuXdG8gZcqQRkcgg1B/w1h8Ef+iyfD//AMKix/8AjteLgcLL2ca0qkm3rq9DWUtbWPknWNS1XXkvb23uPiBY+ItD01rbSNEtU1+fTtckjdzblmDx3MDzEbC103TLKxVc199R/bmhUsI0kK5K8nB9M14H4Z/aY+D1r8UfGF7N8WPA8VncW1isFw/iOzEcpXztwVjLhiMjOOmRXcf8NYfBH/osfgD/AMKix/8AjtehOj7eOsmt9nbqdGJtGaS7L8UmegWtxeLdRxXQj+ZWPyZ7Ef41q1wng74s+B/idqzjwd4y8P8AixrKMm6/sPVIL0wByNm/ynbbu2tjPXafSu7rmwEJUfaUpScknZN77JnLLox1FFFeuQFFFFABRRRQAUUUUAFFFFABRRRQAUUUUAFFFFABRRRQAUUUUAFJS1x3xc8ZzfDv4X+KfEtnbx3l/punTXFnayZ2T3AQ+TEcc4eQovH96gDkfg9o2l+NvDms6prukabqeof8JNrtn9puLGJnMVvqt1BCpO3nbHEi5PJ28813f/CufCX/AEK+i/8Agvh/+Jry3wH8PfjB4F0e70+38Q+CZ1uNU1DVWaTR7wkPd3k106jFyPlVpio74Azmum+w/Gj/AKDXgP8A8E97/wDJVRGMYpRirJAN0HwT4PuPiF4otV0Gzklggs2eCayhNvGGEuDENvBODu9cLXX/APCufCf/AEK+jf8Agvh/+Jrxzw5pHxej+JHiqWPU/CEdy9vZCWaXSLvyZABLgRj7SDkc5yT1HSu1+xfGj/oNeA//AAT3v/yVUw1Xzf5nZioqM1Z30j+SMy68N6T4f/ad8C/2XpdlpvneD/EXmfY7dIt+L3RMZ2gZxk9fU17JXzd8Qrf4n+A/E2ifFDWtS8JX+neHraTSr6zsdOuoXNje32nm6mV2nYB4ktd4yMHDAjkEfSFanGLRRRQAUUUUAFFFFABRRRQAUUUUAFFFFABRRRQAUUUUAFFFFABRRRQA2vL/AI+4vtD8J6IDk6x4r0mEr/eSC5W8kX6FLVwfYmvUMVwHxBs4NS8ZfD+KSPfPbalcXtrJuIEMq2NxFvwPvfJO64PHzg9QK4cXiPqtJ1eVy2Vla7bdutikubQ9A4pN2MknAqjDa3axgPdZbudgrzH9pbwbrvjX4La9pGjQvqd9NLZyG0jjjdpoY7uGSZRHIyxzZiST9zIwSX/VsQrk1jSxdWpy81GUb97afc2PlXc6rQdRgm+IPie3S8uZZY4LMmGVh5Ee4S4MXPVsHdx2XrXZCvzW8NfAHxFdeKvEGia54B1JdCmEk1td6b4f0z7fYJNO2xbeM3Hk6ewQMweDcwYK+Ubctfo4trcKoUXJIAxyuTW8606aXLBy32t382dWJjGM0k+i/JGH8VPDCeNvhj4u8POnmJq2kXdiV9fNhdP/AGam/CnxK3jT4X+D/EMj+Y+raNZ37P8A3jLAjk/+PVtXFpeNgpebMcn5Ac1yvwRs7bTPhL4VsLKD7JZWOnxWdvb7y/kxxDy0TceTtCgZPpXLRx0qmI9hOlKOjabtZ2tfZvucrjpe53tFFFeuQFFFFABRRRQAUUUUAFFFFABRRRQAUUUUAFFFFABRRRQAUUUUAJXyx+21o3gLxnL4H8J/EPxfa+CdI1Z7111O8uLOFFaFYnxm6DR8naOh69jivqbvXi3xg8K6N4y+Nfwnsdc0mw1q0SLWJzbahbJOgxBCN21wRwWXn3FYVaUayUZbXT+53GnY+Lf+GPf2Uv8Ao5XQP/Bp4b/+MUf8Me/spf8ARyugf+DTw3/8Yr9Av+FD/DX/AKJ34U/8Elt/8RR/wof4a/8ARO/Cn/gktv8A4itxH512v7Kv7K91q19YN+0JosEdrHFIt2994eWObfuyFcxFWK7eQoGNwyTkY0f+GP8A9lM/83KaAP8AuKeG/wD4xX2R4X+B/wAP2+KXjKKXwB4aa1S2sTEjaLb7FJE27aNmOwzj0Fd1/wAKJ+Gv/RPPCn/gktv/AIis4bff+Z14pcs0r30X4pM/P7/hj/8AZS/6OU0D/wAGnhv/AOMV9xfss6rpOr/AfwvNod6uo6Si3Ftb3cbxusqxXMsW4GP5SCUPI4roP+FEfDT/AKJ54U/8Elt/8RXP/st6bbaP8GbDT7SGO3tbPVNXto4oUCIoTU7pMKo4A46VLoxlUVR7pNffb/I5b6WPW6KKK2EFFFFABRRRQAUUUUAFFFFABRRRQAUUUUAFFFFABRRRQAUUUUAFeM/ErWItJ/aM+DEUsMzPqUGuWMUqgeWjfZ4Z8Mc5yVt2xjPQ17NXiX7Taz6Knww8XW7xRDw7430xrmWQgBba9MmmS8noMX4Y/wC7ntQB7bRRSUAchoN8k3xB8TWwvp5nhgs2a1dcRQ7vN5Q55LY54H3R17dcBXn3hOJl+Lnjd2VgjWun7WI4P+v6V6FWcHp83+Z14mKjNJdl+KTFrxz9k3WoPE3wP0vWLVJEtNR1TWLyATABjHJql06HgnqrA9ehrs/jB42Pw1+E/jPxaFV20LRrzU1V+jNDA8gX8SoH41nfAHwPL8NPgb4A8KXEYjvNH0Kys7lR/wA90hQSn6l9x/GtDkPQaKKKACiiigAooooAKKKKACiiigAooooAKKKKACiiigAooooAKKKKACvL/wBpzwXL8Qv2e/iHoVtA0+oXGi3MliiHDfa40MtsR7iZIz+FeoVBdeV9ll80gQ7DvJ6bcc/pQBj+BfE6eOPBPh7xJFC1vHrGn2+oLCxBKCWJZApI643YrfrzH9mETr+zV8Jhcjbdf8IlpPmj0f7HFu/XNem0Achol8JvH/iW1XUJZ2hgtGNo0eI4N3m8q2eS2OeONo69uuUEV594SRl+L3jhipCm10/Bx1/19ehCsoPT5v8AM68VFRmkuy/FJnin7WliPEvwv07wm0M08PirxJo+jXHkkAravfQyXJOexgimH/AhXtleWfGfefFnwdUDMLeMf33pgaVqJXP/AAMJ+OK9TrU5AooooAKKKKACiiigAooooAKKKKACiiigAooooAKKKKACiiigAooooAK8t/ag8WHwL+zr8SNaimNvd2+g3iWbKMk3UkTR26gepleMD3NepV4h+1EZdcs/ht4Ngihuf+Em8baXFcQS4O61s3bU5+D1Gyw2n/fx3oA9O+H/AIZHgrwH4c8OhxKNI022sBIowG8qJY8gdvu10NcB8ZPjR4c+B/hMa34ge6ne4nSy07SdNhM9/ql5IcRWtrCOZJXPAHAHJJABI8ntfh/8d/jdGb3xt42PwZ0G4V1Xwn4FENxqqRkKVNxqsquqyq27It4wuMfMTQB7Tod0JvH3iW3/ALSknMMFofsJiKpbbvN+YNn5i+OfTaK6vnjivg34ff8ABN34d+Gfipqb+HfFXjrw3rvh9Le5tfEOm6vGt9I06zCXzGaFkYMBggIMjIOcnPqmpeMPjL+zOrar46vYPjH8MoS0l/4g0vTFsde0WIsf301rEfKureNQu9ogkgBdyhCYqIbfedWIjyzS8l+SO0/a4u18O/DPSvFzTz26eFfE+i6zM0HU2630UVyD/s/Z5pyfpXttebfELS9M/aB/Z/8AE2neH9Rs9U07xb4furbT9QjcPA/nwMsUgYdgzKfUEeoq38BvHjfFD4K+BvFsrq9zrGi2l5c7OiztEpmT2Kyb1I9Qas5TvqKKKACiiigAooooAKKKKACiiigAooooAKKKKACiiigAooooAKKKKAG14v4s0WXXv2mvBmrzwRy6X4T0DUpUKTAyre3klvFGxiHzbRDDdDdjGXIGSDXtPbmvN/B15bX3xf8AiJGob7VZx6ZbyM3TaYpJFA59ZH/OvMxn1mShHDSSberavZWLjy9TzL4a6FJ8S/jx4s+L3iMJd6doMs/hvwNaLKlzDawRjZf3ytG7os08weIkhZEjg2OOSBx/g39rb4heNNDlks/D1u1xcWWl6t9oi8OajIdMtbp5lfFpvEuqJH5Ua/aLUrG3m7sAKc9N/wAE1Y5V/Yr+HqXSkXKvqizBhz5g1O7D5z33Zr1rS/2f/h5oej63pWn+E9PstO1hFivYIFZRNErs6xZBysYZ2IjXCjccDk11UY1Y39rJP0VhO3Q+ebX9rDxBqmk+HtU0eSF9S8QRyCaGPw5qGprbLbfaQJorKBluWS5MYbcxxCNofcWGe1+Dv7Wq/E/xRpkV9Zr4c0q6tLOCJW0+7ukvNTnsorxootQRRahESQqqktJKVZgEAXfuR/BbwN4x+KPi+01bwvp9zb2drpf2dUj8nyQkVzEqoUIKqI3Zdo4wcYr0DT/gp4F0vxRa+IbLwpplnq9qqLBcQQBBFshECMqD5QwiAjDAZCDbnHFUuaUHy6PX8zqxMVGaXkvxSZ5H8JdGb4B/G7xR4HsQkHw48TQN4j8M6f58cf8AZt6JMajZW1uzeYYSZIrgeWoijMjrgbhnsf2ZtGuPB/hfxP4Slgtbe20XxNqf9nxWs4k2WV1cNewI6gkxsqXQXY2DtVT0YE8T8fFjb9sz9lgBSZ/N8UHgceV/ZYDZ/wCBGOvU/BLafa/Fz4jWNurC7kGm6jdtztJkgaFB1+9ttRkY6FfWvN5cZGvBymnF6NJeutzn92z01PSaKKK9kzCiiigAooooAKKKKACiiigAooooAKKKKACiiigAooooAKKKKACvnG68WD4a/tyRaNfBodL+JfhWL+z5nkZlfVNMlnaWJVzhM2tyjE8AmIdzX0dXw1/wVk0HUbP4L+DfiLoazRav4I8T21+L63fZJbQyBlLK2DgmYWqg4PJFAHpfwi1RvgX+0L4y+FGtSyppHjPULrxl4NvLhyY5WmO/UtPXICq8U26dY1z+7nLE5HP01XyLpPxC8FftTeErf4d/EuSTS/EQks9R8P8AiKwZ7D7a7wi4sNU0yfnyLkxtvEJJZWWVMSIr10mn+Kvj78EHTTfE/hZPjj4Xt1Zl8UeF5YLDW0iVM4uNPmdY55Cx2gwSDIXJXccUAe06Hfed488SW39o+f5MFq32LyNv2fd5vO/+Ldjp22+9dXjpXxp4M/bGa++LXitLL4H/ABeudQuorGFrFvDkMMlqwEu03DSXCpErbsqxbBCse1dXqng34uftG2M1v8TRbfB34ZMp/tHwto+prd6vq0I3eZFd6hHtjtrdgE3JBudkMitIoNZw217s6sSkpq3Zfkiz8GdWPx+/aC8R/Fu0mM/w/wDDdhL4Q8KTk74NRlMySalqMJK42b4YrdJEZg4hkOe1Wf2QPFEfxY1D4s/FO2Nw+keJfFDWWiTNKWhuNNsLeK1iniU8qJJUuXIwOW6cV8//ALZH7UGm6D8AfFHgz4UhNC8IaVptppI163Hk29x9pJhgstPODvXyo55XmHy+XbsqEmVXX6w/ZG+H/wDwq39mT4Z+G3tWs7m10K2lu7dhgx3MqedOpHr5sj1ocp7BRRRQAUUUUAFFFFABRRRQAUUUUAFFFFABRRRQAUUUUAFFFFABRRRQAV49+154PPjj9mP4k6Wiebcro09/apjObm2H2mAf9/YUr2GmsokUqw3KRggjg0AfnX+w7qeheNvht8O9M1aCPxTpLXmsfDXUf7WiWaK/S2EmqaY5VgRiK285EHYSnHQV9gL8GdX8N4Hgz4heINCtV+5pWrFNZsl+huAbhR6Ks6qBwAOMfCn7Kcl14Zt/E0MbeXpvh+/+G/iG2izzm8s4rG/nPu0e9ie+Pev1BoA+W/A+hfEy6+PfxRt4/Hnh2C7Wz0cXFzH4VlyQUuNgRWviFIGck7wSRwuMH09fgDpeuSRzeONd1n4iOjiRbTXZY009WByP9CgSOB8HoZUdh/ezzWh4TXHxh8df9emn/wDtervxs8VSeB/g/wCOPEMBP2jS9EvbuEL1aRIHZFHuWAA9zWVN6fN/mdeKiozSXZP70mfmv+0heRfGLxd8FPAgvPJfx7qsnjPVLdkBSe3v7yLTdPK+pgsPOA9o896/WCvzq8D+GjD+3nY6FeQwzWfgWTwz4R01tg+S3Tw1qt+VB/67ojZ9hX6K1qcgUUUUAFFFFABRRRQAUUUUAFFFFABRRRQAUUUUAFFFFABRRRQAUUUUAFcl8VvGH/Cvfhn4r8ShfMk0nS7m9jjAyZJEiZkQDuWYBQO5IFdbXi37SF/c6jc/DLwTYyQCfxR4ushcxzck2NkH1G5wPQi0SM/9dgO9AHyP8MPDDQ+MPjP4dtF8+2/tDwP8NtJuFPEk+nwodQAP8RijSWY99qV+kNfAH7Ncc2j/ABc8Sf2g628dr8dfFH2q3lX50kvNMb7FcHn5VdRJGpI+YygCvv6gDkdDvPO8feJIPt0c/lQWh+yLDteDPm8s+Pn3Y4GTjaemayf2gvCd343+BvjzQ7C3F3qN5o10lnbt0kuBGWiX8XCil8I/8lg8c/8AXrp//teu7uLmKyt5Z55VhgiUvJJIwVUUDJJJ6ACsoPT5v8zrxUVGaXkvxSPz9t/FNpY/te+NPFEEolsfEA8F/EDRplIz/ZjRNo11MfZVvWJH90N7V+hdfm74P8D3PxQ+O2meGrOX7C2q/BPVv3zxFRBZ3+qTHT42HVWjSSJsHB+TOB2+3f2e/iBL8Uvgb4E8V3Uiy6hqekW018VXbtuxGFuFx2KyrIuPatTkPRaKKKACiiigAooooAKKKKACiiigAooooAKKKKACiiigAooooAKKKKACvD9ddPEH7ZXhGxks3kj8NeC9S1Jbgq2yOe8vLWCPnpu8u1uRj0Y17hXl2hnf+054zBGfL8H6FtPpuvdX3fnsX8qAPnL9p7wzafAz40ah8R9VS7i+FXxEt7LR/F+oaeMzaBq1s4/svWVOCVEZCJkYCsAxDsVU/QXgP4zeTNp/hvx3PaaZ4knCrp+rRkJpniJCMpPZS5Kl2X5mty29DnG9Nsjela5omneKNFvtJ1axt9S0q+ha3urO7jEkU0bDDI6ngggkEGvkS+/Zx+KP7P8AYX2i/C+20T4t/B+4ZpG+F/jmcCazDHJhsbuRWTyyTnZPlVAONzMzEA+mdP1S3tPGXiqS51K0S2tbW1kdHQRG3XEpLySEAFTjjJO3aemefFvjr8btA8SfD3WtQm1JtP8Ag9YR+Z4g8T9F1uL/AKBum5I8/wA84jeZTs2sUjLMzNF81+DofGsnxe8cWdj+yFpOp6tZw6XI2g6n4n05rHQmZJTHKrMrJLvK7sRqCvl9iRX0T4E/Zb8WfEHxlpvjz9obXNL8V6tpTb9E8F6HCyeHtHfoJQkg3XE2OjSZ25IG7CFc43tr5nTiLKa5XdWX5I0P2M/h1r4t/F3xf8caX/ZHjf4iXcd4ulOBu0jSYk2WFkQAAGWP5m4Uksu4BlNdX+yvJJY6F8QPDklr9jj8P+OdbtbeMR7B5E9yb+PaP7oW9AGOMAV7bXlvwf8Al8ffG5QAAvjC3xj30HSCf1JrQ5j1KiiigAooooAKKKKACiiigAooooAKKKKACiiigAooooAKKKKACiiigBvWvnfxZ498QeB/2nvEa6H8Pdc8dm98H6OZP7Hu7GD7N5d7qn3vtVxFnd5v8Ocba+ieteH/ABa+HnjHx54/t18IfEi++HM9tpwNxcWOmW1610pkbCkTqQuCCePWuWtW9jKCt8TsUlck/wCF7fEH/o3rxv8A+DXQ/wD5Po/4Xt8Qf+jevG//AINdD/8Ak+uX/wCGcvjX/wBHQ+Iv/CW0r/43R/wzl8a/+jofEX/hLaV/8brqJOd8F/Er4h6b8cPiRrbfA7xROmqWekRpZwanoguLfyUuATKTfAEMX+XBP3TnHf0n/hevxA/6N78b/wDg10P/AOT68q0P4E/F25+Iniqzh/aK1u1vYILRp79PDeml7gMJdispTau3DY2gZ3HPQV13/DOfxr/6Oh8Rf+EtpX/xus6cuZXfd/mdmKpqnNRT6J/ekzqf+F6fEH/o3vxv/wCDXQ//AJPpn7Nuvah4m1z4yalqvh2+8K383jCLzNI1KWCWeDGhaSo3NBJJGdwAYbXPDDODkDmf+Gc/jX/0dD4i/wDCW0r/AON16x8JfDes+EPD8ul+IfE0/jHWoZ2NzrlzaRWsl0WAKlo4gEXahVOByEBPOayq1vZyhG3xO34XORK9zvaKKK6RBRRRQAUUUUAFFFFABRRRQAUUUUAFFFFABRRRQAUUUUAFFFFADe1efx6tJefF7XdFt08q4stD0+9aZjlXWe4vUCgdiDbE577hxxXoGa8Q0/UJ7b9tbXbIzMLe8+H2nzCHPylodSvQWx6gXAH41w4rCQxkOSba63Ts/vRUZOLuj2Fbe9wP9Jj/AO/R/wDiq8u/aY8P+JPEHwU1+x0OKXUr55LN2tLWIs80CXcL3CmPzFMyGFZN0IZTKu6MMpcMPYMijiphgqcGmm9PN/5j5mfCngP4DXPjqxm8M6/4P0nZN4gWdbptKSzn0bSdzzOIYGkkktFnaJIY4hKzJ5ksuV4Ffbv2e9/5+Y/+/R/+KrifCfHxg8c/9eun/wAp69DNXKhCsveb0b2bXXyOrFe5NJdk/vSZnTW99t+S5jz/ANcyP61zXgPxKfEHiDx1YNAUm0HWY9NklzxOzafZ3QcD+EAXSrjJ5QnvgdtXi/7PWsLr3i7463iOska+PXtVK4/5YaRpkDD6homH4Vzwy+lGsq122tk22vWzOXm0se1UUUV6pAUUUUAFFFFABRRRQAUUUUAFFFFABRRRQAUUUUAFFFFABRRRQAV47r2jLZ/tb+DNbBwL7wXrOmv7tHe6bLGP++XnP4V7FXl3xV/4l/xG+EWqKMN/b9zpsrY6RT6bdt+ssEH60Aeo0UUlAHI6Gxbx94lBeyYCC0xHCuLheJf9accg/wAPJ/i6V1gHFefeEf8AksHjn/r10/8AlPXoa1lB6fN/mdWKjyzS8o/ikLXiX7K+hSab4b8eanI6sNc8eeIdQj29RGt/LbJnjutuGHsRXs9xcR2tvJNKwSKNS7segAGSa82/ZnjkHwE8C3c0Zin1LTI9VlQ9Ve6zcsD75lOfetTlPT6KKKACiiigAooooAKKKKACiiigAooooAKKKKACiiigAooooAKKKKACvLP2hmW08J+G9QwRNaeMPDojZeoM2rWtq3/jlw4+hNep15R+0wxT4WRsOGXxH4eZT6Ea1ZEH86APV6KKSgDk9D58e+JPm08/ubX5YB/pI4k/13t/d/4FXVrXnvhH/ksHjr/r10/+U9ehZ71nB6fN/mdeJjyzS8o/ikcb8aNY/wCEf+DvjvVd2z7DoN/c7vTZbyNn9K1vAekjw/4H8PaWAFFlp1vbbQMY2RKv9K4f9q4lf2X/AIukHH/FI6sP/JSWvVq0OQKKKKACiiigAooooAKKKKACiiigAooooAKKKKACiiigAooooAKKKKACvLP2jFFz4F0SzDAPdeLvDaBSM71XWbOWRfxjjevU68m+NF9bTeOPg9oLyos+peKWuBCx5aO1068uCwHs6Qj/AIEKAPWaKx/E3irR/BmhXut69qlpo2j2SeZc39/MsMMK5xlnYgDkgfUgV4DYftMePvjFH5vwX+F0t/4enVxbeNvHV2+jaZMcBo5YLYRvdXETg8PsjGeM0Ae0aHj/AIT7xL/yD/8AUWv+o/4+ekn+u9v7v/Aq6tRxmvgD4X+Hv2vdN+NGu/aPHPgnxLqekraSa7puoQNaWOowzRzeSkM0Nn5imIhucLkkbtwBB920r9rseFfEFloPxo8E6h8HdQvpWisdWvbyK/0C7fJ2RrqMYCxysqu2yZIyAvXJAOUHp83+Z2YqHJNK/SP4pHpH7RWlvrn7P/xN06MbpLvwxqcCjGeWtJVH6muy8P6kusaDpt/G29Lq2jnVvUMgYH9am1bTYtY0u8sJ/wDU3ULwP/uspU/oa89/Zn15fEX7Pvw8vPPjuZl0O0trmSNgy/aIYxDMAR1xJG4/CtTjPTqKKKACiiigAooooAKKKKACiiigAooooAKKKKACiiigAooooAKKKKAG18KeAfiPH8fv+CoXiC3Mv2rw/wDCzw9fWGlCNmCx6i8ttDeSsD/EfNmh9CLdSOma+6m+7xX51/Af4g6Zoq/tb+KvD/hOx0LxL4Psb2+k1SO7nnfVHLajcZkDyEx/vYWJ2Fc7+MALXnYjFTozjCnTcm+1tFprq1+Fy4q+rZ7P4a8PRftl/FDUPF/iIfb/AINeENUl07wvobNvtNe1C3cpcapMBlJoUkDRQDLKdkjELkhvpr/hKNGxqDf2rY7dOOL0/aUxbHniTn5Oh+9jpXG/BDwOvgf4O+CdBs7eDR4bHR7WI2Niv7mJ/KUuFLbmPzljuZmYkkkkkmvmXxX+yZ4qhvtfufDlpqD6PYy2sFnp90ukm91FBq1vezTRkIsUoRIWEf293ZmkcsE6yb0q06jfNBx9bfo2JrzPqbR9a02PxX4g1Jr7R1sJoLHy7yG4XzJN3mBPMbONpJAT1y3WtzxNo+geMtNv/C2u21jrFnf2xF1pN4FkE0BO0loz1XPfHUetfDXh/wCBvjQafqOgXngyHxJJp95LqU+k3U9jG8q3setRw74wRao8Rurd3WI7Bl/KBKgN6p8CfhJ8Uvhz8Upn1Zp9Rtb2aUatr149jPbzWawAWkVpIAL0SI6xKY5R5IUTMvzMpN8zUHJK++nzOrEx5ZpX6L8kavwQvNT/AGffi4/wL13UptS8K39lLqvw+1K/n3zLawlRc6Q7ud0j2wdHj+8fJblgECjzT9gv4mzaD8dvj38Cr1GtrXQPEmoa14ctWVv3FhLdsJYlOdqxqZbaRVHJNy5Pt7X+1Msfhfw/4M8cXPkyz+GPFmlSLdTFo3tobu5SwnZGjZT/AKq7bKtuRsfMpwMeXeCrzRYf+Ckni7SYfDMFprkXh83k/iFLuUS3u+KxUo0Ik8vaFWIZ2ZJjBznOeCWMqQlFSoys3a91p+Nzm5V3Ps2iiivWICiiigAooooAKKKKACiiigAooooAKKKKACiiigAooooAKKKKACvyS/4J9+Bbq48E/Gf4VSX0cHiHx34W1Oxje4YlLeSCS5skD46EvPO+OpEbnnFfrbX5cfCvSdQ8L/tD/FS20GDHiXR/iTfT2kc0gjiY3SvdafAXP3Emhh1a1JPAa/jPUcgH3b+yn8QI/id+zj8O/EKu73M2jwW96JVZXS8gXyLlCG5ys0Ui89cZr1qvjqx8bL+z/wCI9S+LHh2wv9W+BPjuZ9W8T2tval7zwpqwIjub1oV/eGFihFzHhnikidxxlD9YeHfE2k+L9FtdY0LVLPWtIu08y2v9PuEngmXJGUkQlWGQRwe1AGLoke3x94lby7JcwWn7yF83Df63/WrngD+HgZy3WutX9a848H3EUvxm8ewpKjyxWmneZGrAsmRORkds1b+L/wAaPCfwO8MnW/Fepi1WRvJsdPgHm3upTkgJb2sA+aaVmZQFUcZyxCgkZ03dfN/mdWKjyzSb6L8Ujzj9qvVrjWPEXwa+HemzQHUvE3jWx1C4tZgcPpuluNQumzjHDQW64PUyqK+T/D99eeNf+Cr3h/xVZSm50Ke/1ixXYMiI2GlNayc91ZpIpAehEqkdq9w0u38af2hq3xM8UWy6F8XvHdo/h7whoMrqU8K6Mp815rjHDOnFzO7E/MsMKlCQteT/ALGuh6bc/trTPpsc62GkfD4XawXJ+e3e8uYDZbs8mT+zEslcnncpzWhyn6O0UUUAFFFFABRRRQAUUUUAFFFFABRRRQAUUUUAFFFFABRRRQAUUUUAFfnhrnhnVP8Ahuz45+HrO9hsB4q8N2+saHE3VtZ0tLC5tZMDrtklmbHUqHHSv0Pr4D8daLLZ/wDBWPwHqhmZbc2SKV3HbmfSdVXGPc2K/kKAPofSodXh03T/AIpfDWzXU9M8V2dtrGreD5J1jW882JG+1WkjEJFc7CAytiObaNxjbMh4Xwz8GfhT4v8AFlzqPwv8W+Ivg34xWYXmq+HfDN2NNZ5QmxWu9HuY3gIGD84hCuctubOa9g/Zl2p8AfAsCDEdrpkdoi/3VizGo/AIB+FdT4x+HHhX4iW0MHinwzpPiGKA7oV1SyjuPKb+8hcEqfcYNAHyt8Pfgr8Trr49/E6yvfj3ryLHa6Z9rvNN0HSYLu8jeOcRqWNu6xNGAwDIgLbgeMCuh8J+EPhf8IvFk9z4RtNX+N3xlhh+zNq+q6odX1K34cKtxfSEw6fHiQqQoRmU8RyEYPQ+F/2c/hrdfFLxlZ3Pg7TLuzhtrFltbqMzRHcJs7kclWHA4II4r3rQ9A0zwvpkGm6NptppOnQDEVnYwLDDGPRUUAD8BWVPb5v8zsxStNK/SP5I8B+IPgDVrXwteHxFqceqfED4h3Vt4WkuLMMlvpunzMWubayBO5VS2S5kMhw8kiBm2gIsfm/7D/2rxL+0x+0x4svIrf7NNrMGm6VNbhdptLWa7slUY7BbGHH/ANevoj4qfvPiZ8F42GUHiO8mH+8NG1BQfydvzr5J/wCCQNvet8P/AB5d30kkk011YsPMYniSJ7rIz0z9qz+NanGfoPRRRQAUUUUAFFFFABRRRQAUUUUAFFFFABRRRQAUUUUAFFFFABRRRQAV8KfGS88v/gpH8PUX73/ElB5/6dPEYP6NX3XXwj8VNLE3/BRLwJq3msytq1jppjZBtQxaRqcwII65+1d/SgD6e/ZlA/4UT4RIO4NbuwOPWVz/AFr1CvMf2aW3fAnwZ6rYhT9Q7A/qK9NoA5HQ7by/H3iOX7JBHvgtB9ojm3Sy483h0z8oXPBwM5PXHHWjpXnvhLn4weOf+vXT/wCU9ehVnB3Xzf5nViouM0m+i/FI8w+Kn/JUvgz/ANh69/8ATRfV8vf8ElboXHwx8YDjKzaR0PYaRar/ADQ19RfE9RJ8U/g4O663fP8Ah/ZN4P8A2YV8tf8ABJ3Q30X4c6zNLMzSavpmj6mkRAASPbc2y447m0c1ocp960UUUAFFFFABRRRQAUUUUAFFFFABRRRQAUUUUAFFFFABRRRQAUUUUAFfCvxT1D7H+0J4C8Ulf3Fz8Zf7JSY9AP7Disgn/f1JvxJr7qr4K/aAb+yf2N/A3xXWI3KeH/Htn8SmjU8zRXGqyyhc+nl3qgewHpQB9Qfs2sLf4YvpZOX0XXNY0nb3CQalcxxE/WIRt9GFeq15R8N8aB8Y/ijoAOIL6XT/ABTbAH5dtzAbWRV/7a6e7n3mz3FerUAclolr5fjzxJP9hjh8yC0H2pZtzzY83hkz8gXPBwM7j1xx1fOM1574RJ/4XB45/wCvXT/5T16HWcNvm/zOrFRcZpN9F+SPGvizrkOl/F7wXc3LBbTQNB17xLcP2QQx20Az6ZW6lI9djeleM/sA2baB4W+HcUkbRNrfw10+VAf4vst9dsx/LUkP/AhVn9q7xpDofw9/ab8WTq0lvpvhi18D2u0/curmJndx9W1SzB/64+xrvfB/guT4S3n7OOmzti4sdAuPBk3GN8hsIbpiffOlMfxPrWhyn0PRRRQAUUUUAFFFFABRRRQAUUUUAFFFFABRRRQAUUUUAFFFFABRRRQByXxc8T/8IT8KfGniIbgdI0W9vxt6/uoHfj/vmuN8UfBGHxJ+yrd/CgiMeZ4UXQoS/wB2OVLURxP/AMBdUb8Kv/tHf6R8INU0w9Nau9P0M+63t9BasPpiY/hXqFAHxx+zT8RJdc+HPwI8c3e+C9gtJfhz4mhnfdLBdoyxwyT91c3FoihTz/xMB65r7Hr4k8aeH9L+An7QPibwz4lmmsPhD8bp/tNvqMLeWuieJ1wWYP0iafbHKkhyfNiTgKjGvf8Awn8WpfDV7a+EPiZcwaJ4pU+RaatMvkafr6gcS20h+RZWHL2xO9CG2hk2uQDrtDszH4+8Sz/2fHAJILQC8Wbc0+PN4KZ+Xbng4Gdx64roNW1a00PS7zU7+dLSxs4XuLieQ4WONFLMxPoACfwrz/Q9StdK+KPj+9vrqGztIbLT3luLiQRxooE/LMTgD61xvjbx3pfxj0m8Ed/HYfBvTUN74i8VXJ8q11WGM7jaWzsMSW7bf3065RkzGhYu5jyg9Pm/zOvExamrvovyR4V8UNPvviAvwG+GFxbyJq/xE8WyfEDxNZswzBpsDm6+yzr2AV7eFSeC1rjk19RftAbdP0bwhrxJB0XxZpMu4DO1bi4Wxc/QJeOT7A15J+yXpWofGT4ieMP2jddtbiyi8Swrong6wu02yWugwybllZezXEoM2OcdQSrCvX/2mImb4AePrmNS82n6RPqcSr1Mlsv2hAPfdEK1OQ9PoqOOVZo1dCGRgGVh0IPepKACiiigAooooAKKKKACiiigAooooAKKKKACiiigAooooAKKKKAPMvjh/pS+AdN6/bvFun/L6+QXu/0+zZ/CvTa8t+LhLfEL4JopwP8AhLLl2HYqNC1X/wBmKn8K9RoA5X4kfDfw58XvBeq+EvFulQ6xoWoxeXPbTD8QysOVdTghhgggEV8xj4V/H/4EaJL4d0QaJ+0b8NFUxweHvGNwllrcEXO2H7U6tBOi+sozjCqFUAV9j0hoA/OnwpofjrR/iJrmq2X7E+jTTzLafZdJuNb0uG20h4hIGlhlaIpmTcCfKAI8vnORXsFn+zT8S/2gdYsNT/aG8QaWvhWykW4tPhn4P8xNMkdSGRr+Z/nuCpA/dj5NygggFlb3Lwif+Lv+Of8Ar10//wBr16HWUNvm/wAzsxd/aK76R/JENvbRWdvHDBGkMMShEjjUKqKBgAAdAB2rI8faP/wkXgXxHpW3d9u025tdvrviZcfrW/RWpxnIfB/WP+Ei+EvgnVd2/wC3aHY3W713wI2f1rr68y/Zjwv7OXwvj7w+GdOgP1S2jQ/+g16bQAUUUUAFFFFABRRRQAUUUUAFFFFABRRRQAUUUUAFFFFABRRRQB518QtNiv8Axx8PZGaT7TZX91c2pUgIJDZTxEuMZI2Sv0I5IPQEHsoYb8xjfNGG7/IT/WvK/jtJ4z/4STwXb+Arnw7beJpGvGt/+EmjmktiFjXflYXVz8hboepGa5j7L+1sP+Yp8F//AAW6v/8AJFfP08K6+Jq1Kk5WTskm0rWXT1NObRJI9/8AIvP+e8f/AH7P+NeX/tCSazY+CdIubA6zcXMHinQZXj0G1uppjbJqls11vSAMzRfZhOXBBUgY64Fcj9l/a2/6CnwX/wDBbq//AMkUfY/2tv8AoKfBf/wW6v8A/JFejDBwpyUlJ6ebJuzxvxIms3Hjrx/p0/h7xadNuvFU8kfiDUNL8Q6jCkKW/wAkcdpZmOWSLzZJvLcP5KjO3olfYfgXTb7TfBPh2zk1i81eS3063iOoapbvFd3RWJQZZ0fDLI2NzBgCGJBANfOHh61/ad/4WJ4oFpqXwnGriC0+2tPp+pm3K4l8rygJ9wP3924n+HGOa7D7L+1r/wBBT4L/APgt1f8A+SKqVGNeOras3s2uvkdmKvCok3fRfikz37yb3/nvH/37P+NQzx6iuNk0ZHfKEf1rwf7L+1t/0FPgv/4LdX/+SKQ2f7WuD/xNfgv/AOC3V/8A5IrjrZdGcGlOS9GzkUtdj1H4I6fbaT8KfDdjZiVbS2tRDEJ2DOFUkAMQACeOwFd33rz/AOBFxPcfCvRGupbWa5AmSZ7Ikw71mdWC5JOAQRyc8V6BXTgeb6tT53rZXvuKW7HUUUV6BIUUUUAFFFFABRRRQAUUUUAFFFFABRRRQAUUUUAFFFFAHzp+034P8YeMPib8JbfwX47f4far5mqr/aaaRBqWQbZGK+VN8vIRhn3qj/woH9or/o6mf/w3+l/416N8TsQ/Fr4OSngPq+oW4PudLunx+UR/KvU6APmb/hQP7RX/AEdTP/4b/S/8aP8AhQP7RX/R1M//AIb/AEv/ABr6ZpKAPj/R/wBnn9oRPG3iCVf2kbi1keG1Dal/wg+mN9rx5mF2Zwmz1HXf7V0//Cgv2iuv/DVE/wD4b/S/8a9V8IsT8X/HGf8An10/+U9eie9ZU9vm/wAzrxSamr9o/kj5n/4UD+0V/wBHUz/+G/0v/Gkb4A/tFdv2qZ8/9k/0v/GvpqitTkPGP2Q9Nv8ASf2e/DdrqmqNrWoLNqBm1BoFgNwzX1w2/wAtflXOeg4r2evLf2Yvm+A/hCXqJ7VpwfUPK7g/+PV6lQAUUUUAFFFFABRRRQAUUUUAFFFFABRRRQAUUUUAFFFFABRRRQB5b8av9F8RfCbUe1l4wjyf+u+n31r/ADuBXqVeLftWyRaf8OND1qa4ltY9H8YeG713jcr+7/ti0jkDYPK+XI+QeOK9poAKKKSgDkdDsRD8QPE1yNPkgMsFoDeNLuSfb5vCrj5Sueeedw9K63tXnnhJ2b4veOASSBa6fgfhPXolZQenzf5nXik1NX7L8kLVa/vEsLG5upP9VBG0rfRQSf5VZrzL9pjXX8L/ALOnxS1aGb7PcWfhfU5oZA2CJBayFMH13Yx71qcgv7M9m+n/ALOnwtglP75PC2meb7ubWMsfzzXplc78PfDR8F+AvDXh9pDKdJ0y2sDIxyW8qJUznvnbXRUAFFFFABRRRQAUUUUAFFFFABRRRQAUUUUAFFFFABRRRQAUUUUAeLftmaKdb/ZV+KSK2ySz0G51ONv+mlqv2lPx3QivTfCPiJ/FXh+31R9Mu9J+0GTba3xjMuxXZVkzG7rtdQHXDH5XXODkCh8VvC7+Nvhf4x8OxrvfV9GvNPVfUywPGB/49WF+zfq0mvfs7/C3U5mLy3nhbS7h2bqWe0iYn8zQB6RRRSUAcfoNikXxC8T3Isp4Xlgs1a6dsxTbfN4QY4K555P3h079f2rz3wnM7fFzxuhZii2un7VJ4H+vzivQ6zg9Pm/zOrExamr9l+SFr55/beub6++Cdx4Vs9IvrtfFF/pujyahAYhBaifUrODbLucOTIJmVdit0O7aOa+hq8J/aoWe+b4PaXCSVvviLpBkVf4ltxPeH8jag/8AAa0OU92ooooAKKKKACiiigAooooAKKKKACiiigAooooAKKKKACiiigAooooAK8L/AGHbyS8/ZO+GfmOXa20sWWT2EMjwgfgIwPwr3SvGf2QtCXw1+z34Z06Ob7RDDLfGKTbtyjX07Lxk9FYD8KAPZqKKSgDjtBsY4viJ4nuVtLmOSW3s1a5k/wBTLt83Aj46rn5uT1Xp37HrXnnhWaWT4teNY2kZo0tdPKqScLnz84HavQ/0rOG2nd/mdWJi4zSbvovyQteL/GrUF/4XP+z9prDLTeJtQux6futC1Ff5zCvaK8W+LmjtffH34EX/AJ2xbHUdXJj253l9LmXrnjHNaHKe00UUUAFFFFABRRRQAUUUUAFFFFABRRRQAUUUUAFFFFABRRRQAUUUUAMZljUsxCqoySegFeYfsvAt+zr8N7hgVa80G0vmU9QZ4lmIPvmStv42eJl8FfBvx34hc4Gl6DfX3XH+rt3f8+K1vh74dPhHwD4a0IgKdL0y2ssL0HlxKnH/AHzQB0NFFJQBxugWUUXxE8U3KW13HLNb2YeeQDyJNolwI+Ooyd3J6r0rsfevP/Ct1NJ8WvGsLSu0UdrYFI2YlVyJs4HbOB+Veg1lDb5v8zrxUWppPsvyQteX/FphaeP/AIOXhHy/8JPPau3osmkahj83WMfjXqFeUftGXlvofhXw1r1zKsMOk+LNEkaQ8BVnvorRifYLdMT7ZrU5D1eiiigAooooAKKKKACiiigAooooAKKKKACiiigAooooAKKKKACiiigDwn9syO21z4N2/hC4mkgPjLxFo3hwGMfMY59Qg+0D/wAB0nP4V7tXiPxe8/xF8fvgf4bW2jns7S71XxVdludi2lmbSI4/666nGw90HpXt1ABRWJ4s8XaJ4F0C813xFq9noWi2ahrnUNRnWCCIEgDc7EAZJAHqSAOTXhMP7Ydz4+srif4P/Cjxj8T7cRLLba1JDFoWj3QJIYR3V80bOVIIOyJhx1oA9e8P2NvF8RPFNxHb3iXEtvZiSaVR5EgAl2iM45Iyd3Pda7HNfBvgf4ofthaX8Qbu+1f4XeGPEpKQ/wBseG9L1iOzlt42SXyGt5pbh4w24EvnfuCgfLncPcbX9tHwdoevRaL8SdF8RfB7U5phbW8njOxWHT7uTbuYQ38LyWzBe5aReo4rKm7r5v8AM7MVFxmk3fRfkj6Drx79rzwn/wAJp+zF8TNNVXa5TQrm+tRH977TbL9ogI9/NiSvXY5FkQOjBlYZDKcgj1ps0KTxvHIiyRuCrKwyCD1BHpWpxmX4N8T2njbwjofiKwz9h1axgv7fd18uWNZF/RhW1Xiv7Hc95D+zx4X0TUXRtQ8MNd+F5whBwdOupbJc47lLdT75z3r2qgAooooAKKKKACiiigAooooAKKKKACiiigAooooAKKKKACiimv8AdNTJ2VwPD/Dn2fxN+2P41v0nd28KeENM0gR4+VZr25ubmf8AHy7ezP412vxk+LmhfA/4f6j4q10zTRQlYLSwtEMl1qN1IdsNrbxjl5ZHIUAdOScKpIwfhfo4uPHHxS1OK2j0+7n8QxQzXUO5nvFj02zCO+4kAruZAFAXCA43FmPFQRD41/tSavp2o2C3Xh74Tx2ktpdXSS/Prt3CZDIgD+RIILV48b4y8bz5Vl7+RQx1StHmVF26arVfeaOKWlyt4P8AgDe/ELU7X4n/ALQps9S1y3/0vS/Bsk/maF4Vi2naCpPl3N0AxMlzICA2BHhY0Y/Qa+KNFbxA2gjV7A62sXnnTPtKfaRH/fMWd233xivOv2lPAuqfEL4A+P8Awzptj/wkOp6to9xZ2WnymFFe4dCInLSYVdj7ZMkgjZkc4rgIfhh4v8R/Ga813U9AuNBSO9m1DRdQso9LNla3DacbeO5u1Ui8uJhvdGXzfLICDGFDV6NGpKoryi4+tv0ItY9i8NLZN8R/F89uLgz+VaR3Er7TBlRKQqEc7gG+YHplaseItd8E+IPDsFnruo+H9S0LxB/okMGoTwS2upbuPKVXJWXPTaM5r5B8J/AX4l6D4Y+NHw2g1ePXZ9XuLTUW1e3uGs5bgM0bXI2TNOvm3Sx3CtuOwMRuBRsL2njj4T/Erxp8E5fC154Q0+71q8t73SrDVpJdNivNMsnePyoboJAIhG4U+YbPa6iOPYN/zrcfh08/zOrFJqok+y/JEuseHdZ/YZnPiDwqb3W/gHvU654XlklurnwmpID31gTud7QZ3y2/JT5pE4LhfqfS9StNa0211DT7qG9sLuJLi3uraQSRTRsoZHRgSGUgggjgg1Wm0d7qze2uJzPBIhjkikRGR1IwVII5BHrXhf7OMk/gXxZ48+CqWZ0nSvBT2l34daNpGW40m9WR4gDPJJI7QzR3ETNuC/KgVVA2ji+s1bP9y/vX+Zzcq7mx8AGtfD/xQ+O3hGDzB9l8Uxa7Gsh4EWoWFvKxHsblLuvca8t8P6X/AGb8fPEs4s4w974e0vzNRBcSXBjuL8CNhnZiMPkEKG/esCSAoX1IcVWExLxKk5RcXF2afon0bCUbDqKKK9AkKKKKACiiigAooooAKKKKACiiigAooooAKKKKACkPORS0UtwPPvg7ro8SaNr98bVbS4TxFqtlLGjbt32a7ktkcnA5aOGNsdt2OcV5r+xjp5tdL+Md68/ny6l8UfEc7ZYlk8u5FuqnPTCQLgemK7T4Yyf8I98Tvid4WmzH5l/B4ksI+cG1u4Ejkx6kXVtdMcdPMT1GeD/ZTtT4L+KH7QngO4kmmvrbxo/ipJmiKRNaatAk8QQn7xWWK5RscZT34inTjTioRVkh76n0nRRSVoI43w/aW8PxG8VXEcN4txLb2QkklQCBwBLtEZ6kjJ3Z6ZWuxBFcH4X1C4uPip4ytZJpHtobaxaKFmJRCwm3FR0GcDPrgV3fFZwtb5v8zrxKkprm7L8kPrwTVvDsem/t0eF/ECyEy6v8O9U06SJcnAtdSsJEZh6f6ZIAfrXvdfOHhuaTxp+3t4v1GzvN2m+B/BFp4fu7ZkYYvtQuvtpKHGCBBbW5P/XRa0OQ9V1TxItn8ZPDfh9bRWfUtC1PUHu9+CgtbixjWPbjnd9sc5yMbDwc8dxXlfhtv+Eq/aC8XashL2XhrS7Xw/E46fa5ibu6X8Izp/TuWB6V6rWMacYOUorWTuxi0UUVsIKKKKACiiigAooooAKKKKACiiigAooooAKKKKACiiigDx/48XX/AArlNM+LKKzQ+E4p01qKNCzTaPMYzdFQBkvC0UVwPUQyKMeZkcT8fIbnwn4k8I/tGeB7c+JYNI05rLxHZ6S6SSax4bmxN5tuTlXe3k23CBSu9WlXfyAfYfjV4Wfx18G/HnhuP/WaxoF/p649ZbeSMf8AoVfFv7CPx8vPA/wx8O2GtCW6+HTeH7DUYNRDGWTQyWms7lpsks1qbuzuHLgf6P5yBv3RzEAfdfg/xfo3xA8L6Z4j8PajBq2ianCtzaXlucpLGwyCO4PYg4IIIIBBFblfM158EfFfwZ1i98X/ALP91pd3oOqsb3U/hzq05i0q9dsP5+mzoCLOdwCuNrQP5gLBdgNXLX9uDwR4dmh0/wCKGleIvg5rkkxtlt/F2myJZzyqoMht76IPbSxgnAfeueDgZoA9Y8P2ttH8SfFc8aXQuJLezEjSRgQkAS7fLbqTyd3pxXZjFfOWnftZ/CXSfG3i7UdR+LPhMaH9ms2tGGu28sbsPN80Qqrne3KbggJ5XPaoW/a3vfidHb23wP8AAGueP2u0DW/ijVrWXRvDkKlzG0jXM6LJN5bYJjgjcsAcEEcZQ207v8zrxSlGaUuy/JWPSvjz8bNO+Bfgj+17iym1vW764TTtC8P2bAXOrX8hxDbx8HGTyzYO1QxwcAHzfwk0P7HX7OmoeIvHN5Hq/jrWr+TV9Za2JB1bXr1wEtYFyflB8qBNoCiOHeVUBsS+GvhbYfCfVp/jF8avFcPij4giM21veLCy2GjLKcfYdJtfmfc+RHu+aebp/Gyn5y+NXibxJ8bP2k/hNZ+IIbjQ7ex+IWlro3hlirGGK1tjf30t1tJV52SfThgErEDJGCSZGbU5D7o+FPgibwD4Js9Ov7lb/XJmkvtWvoxhbm+mcy3Eig9EMjMFX+FAi9FFdnRRQAUUUUAFFFFABRRRQAUUUUAFFFFABRRRQAUUUUAFFFFABRRRQAV+Zn/BPfT5vAvhvStdu9Qu54fD/i+9+H9xZT3G+3tNNvhDcWzJHgAM9/JCpc8nzmGcKFr9M6/Ob9lvwtHqPj344/DZ7t7STxx4ctPE3h+QL8tsIJ7iz+0jP8azLauOOq+1AH1/J8IdU8D3Ut58L9Yh8PW8jmWbwtqUJn0aViSWMSKRJaMxJ5hPl5JYxOSTVgfFbxXoWI/E/wAL9ciI+/feGbmDVrP/AICN0Vyf/AcV03wr8aH4ifDnw54jeD7JcajZRzXNr3trjGJoT7pIHQ+6muroA+fPDvxT8Kaf8RfE2rWPhTxo+pahDbLJGvgu+iPyCQffaFcZ3dXIBwNpPOOu/wCE4+I3iz5PDXgRPDUD8DVPGd4ilR/fSztmkeT/AHJJID7jvseGdSubj4qeMrWSeR7W3trFooWYlULCbcQO2cDP0Fd4vTisoWtp3f5nXiubnXN2X5Kx5ZZ/D/SvAovPH3jnX7jxVrmk2k10+sakix2+mwrGWl+yWy/JANgbLfNKy8PI4r4w8KeFdStP2/vgampyXyXt7o2reOtV024l3xWWoanHdhokzyuxLeGLaDt/0cEAFmLfZvx6X/hIrPwv4FT5v+Es1mG1vFH/AED4A11dhv8AYkjg8g+9wPWvmL4f3h8bf8FEPF3i+GVrrSrTXx4UspGBHlyWeizm7jHsJpj+p71qch96UUUUAFFFFABRRRQAUUUUAFFFFABRRRQAUUUUAFFFFABRRRQAUUUUAc/488WW/gPwN4i8TXYza6Np1xqMozjKRRNIR+S18e/EPwzcfsxax+zX8Urt2gtNFsbfwJ4yl3eWv2W7jXbcSnoscV2DI3qWXpX0b8cs+JJ/BngRBvHiPWIpb5R20+zIurjcO6SNHDbsPS5rf+M3wt0n42fCzxP4G1tR/Z+uWUlq0m0MYXPMcqg/xI4Rx7qKAOY8Ezt8NPiprPgq5wmjeIprnxB4fl6KJncPqFof9oSuble7LPLgYiJr12vkz4Aaxqnx6+Ao8H+INQbRvjP8M79dNvLuYmWa11K1DJbXrBjuliuYc72OBKslwoOOa96+F/xIi+IOkzx3Vr/Y/ijS3FrrehyNmWwuccjkDfE+N0coGJEIYdwABfD1tbRfEzxdNFJM11JbWIljeLbGoHnbdrZ+YnnPHGB1zXbKeOK4TwzqV1c/FLxhZyzs9rb21i0MJPyoW87cQPfAz9BWH8UPE974p1dPhr4SvpINdvo1fWtUtT82h6c2d0m7otxKMpCp5yWlwViIOcNtO7/M68UpKa5uy/JWOQ1P4n6Zpv8Awn3xx1ph/wAId4O0u80vQ/nVWvfLcNeTRljg+dcQw28X97yNwJEorzf4G/D7VPhZ8CPhV438S5PijVfGi+LvEsmzYTPrKy2Z3L/DsF7bbh2MJPQVY/aC0/TPit8UPhl+zF4YtVTwppX2bxB4vt7U5gtNJtMfY7CQf9NpFj+UncAkbYIbNfUXxF8GW/xE8A6/4YuJWtodWsZrMXEf34GdCFkX0ZGwwPYqK0OQ6aiuN+D/AIyuPiB8M/Duu30S2+qXFqqajbr0gvIyY7mL/gEySL/wGuyoAKKKKACiiigAooooAKKKKACiiigAooooAKKKKACiiigAooooA8R8PXh8Xftd+L7gXcr2ngzwtY6THb7f3aXV/PJc3Jz6+Va6f+DV7dXhn7M+ov4k8RfG7xBLapA954+u7GN1wS8VjZ2diOfTfbSHHYs1e50AfNP7QHwD8UW/juD40fBue3sfifY24ttR0m7bbZeKLJcf6NPyAsoAHly8YwoJAAK854f/AGhPhJ8d9ctrPxXe3/wU+MmmRrayafq10NJ1a2Zz/qoZnAjvIWbLLGwdW+VzEpxX1zXG/Eb4Q+Cfi7pqWHjTwppHie2jyYl1OzSZoiepjYjch91INAHk1v8ADy903xV4uu9X+NPiS1sreztJdRvGttMscwASlTJci2CqMbstEIiP73THAyftI6JDJdfDL9lrQYPiH4tkm33/AIgWZ5dF0ySQc3t9qDFjdyHg4VnZ9jDduUKcb4a/sM/Apv2gviTpsvw60+607RYdLmsLO6nuJoYmnjmaX5HkKsCUXhgQMcYya+yvDPhXRfBujwaV4f0iw0PSoBiKx022S3gj/wB1EAUfgKzp2tp3f5nZiubnXN2X5Kx5t+zh+z3ZfAXw7qT3GpzeJvG3iC5/tDxJ4nvFxPqd0c84/giTcQkY4UE9ya9hoorQ4zwz4B3R8P8AxU+N/gkm6MNh4hh8QWYuJNyLb6laxzOsYz8q/a4r5sYAy5PUmvc68NjuL3Sf23J4Bxp2v/DyORveWw1JwP8Ax3UzXuVABRRRQAUUUUAFFFFABRRRQAUUUUAFFFFABRRRQAUUUUAFFFFAHi37JN7Bq3whutVgi8oan4r8TXrZGCd+u32M+4XaPwFe0V8cfAb4L/G/Tvhpax6D8Z9L8O6TJqGpTw6bc+B0uXi8y/uJGJkN2pYMzsw4GAwHbNeh/wDCpf2iD/zcHof/AIbyL/5NqYtSV09APoWivnv/AIVL+0R/0cJof/hvIv8A5No/4VL+0R/0cJof/hvIv/k2qA9H8M6fp9v8U/GV3bzh7+4trEXMXkbSgUTBDv8A48gt9Me9d2D6dK+T9P8AAH7QereNNe0qH9oHTrKbT4baSS4XwJbukwk8zAEbXPyEbDk7jnI6Y53x8Ff2ju37Sum/+G6tf/kqsoWt83+Z14pSU1zdl+SsfSdFfN3/AApX9o//AKOW03/w3Vr/APJVH/Clf2j/APo5bTf/AA3Vr/8AJVanIb/xG1KXS/2tPgsI1OzUtD8S6fKwA6f8S6cA/jb17lXyZp3wh+KWh/tIfCjWvHXxUg8f2liNXENvbeFotLEBktApLPHM+cnb1H8PvX1lUKSbaT2AWiiirAKKKKACiiigAooooAKKKKACiiigAooooAKKKKACmSHarEnjFPrzX4/axdWnw9l0TS52t9d8UXEfh7TpI/vxSXGVknX1MMAnn+kJrOfwMDzDwT8A9T8beE9K8QW3xj+JHh231O3S6j03Rr6wS0iVxuGxZLN2G4HccseWPQYA3f8AhlrWf+jgPi5/4MdM/wDkCvWtFaHQ7G10y1tJIba2QQRKqHaiKMKB7YArU/tD/plJ/wB8mvCwOYUPq8It6pJPR7msoyuzxL/hlnWv+i//ABc/8GOmf/IFH/DLOtf9F/8Ai5/4MdM/+QK9t/tAf88pP++TXC/ET4gap4T8RfD+2sYLQ6frmunTNQkvFffHEbO5mVosEANugXJbIxnjJyPUp4yjUkoxerI5WtTyfR/2Z7ubxp4gt4fjx8To7+GK1Nw8NzYJMykSbPMkNkVccNgKq45znIx0n/DLWs/9F/8Ai5/4MdM/+QK8h0X9qj4hJqGu3UFjD4lttbbSLXw7e2ug3FrBHJcpdytIlu0pmu4hBB5itmLzCFH7sOSn1Z4D8cWvjTwhpesWk8l6lxFtklFm9sfOQlJVMLktEyyK6lGJKlSCTjNXKrChG8nZXZ04jmlNX3svyR5l/wAMs61/0X/4uf8Agx0z/wCQKP8AhlnWv+i//Fz/AMGOmf8AyBXtv9oL/wA8pP8Avk0f2gP+eUn/AHyaw/tDD/zfmc/Kzw/Q/hPefC74ieENQvfiP4y8aR3l3NZCLxRdWsscBa1mcFPJt4sFjGAck5O3Hv76OleU/Gy11PxB4FuLnRbO4m1rRri31uyt1XDXMlpMlx9nB7GZY2h/7amvQvDXiLT/ABd4d0vXdKuFu9L1S1ivbS4XpJFIgdGH1Ug1zZfWjiJVakHeLen3Ic042TNWiiivaMwooooAKKKKACiiigAooooAKKKKACiiigAooooAK8h8HzL8Vvixqfi5T53hzwv52h6G38FxeFsX92vqFKLbI3Yx3OMh6v8Axc8RalqdzaeAPC15JY+J9ehZ59Sg5bRtPB2zXntIc+XCD1kbdgrHJj5h/bV+LUHw/wDCGn/BX4eS2ej2On21omuMLmaFYLNuLfTVki/eLLcJHI7kHeLeKVsMXXIB9zNcQKxBljBHXLCnoySLuUqw9V5FflL4Fs/CWi+D/h0dZ/ZL8Gx+G9curXw5p3jbXtcCR6ldMuyOeRBZtKFm2NIJCm0jJz0r2/8A4Ju+F7my8YfFbW7XQtP8KeHrxdNaHSdGlke0Wa4E18q4ZVAkitLyyhbCL93kZzmORdgPu7aPSsPxB4M0DxVdaVcazotjqtxpVyLywkvLdJWtZwMCSMsPlbB6jmt2inyoDw3wt+z98LbHxV410W08H+Hf7NvINOa60RdGiS3TyzMYmxt2sckkYHy4969f0Pw/pvhfR7TSdH0+10rS7OMRW9nZwrFDCg6KqKAAPYVy/hvVrq7+J3i6wlkza21vYvEm1QVLibdyBk52jqeO1dz71ELOPzf5nXibqav2X5IXaPSo5JIocb3VM9NxAqWvzI+PPhWw0X9trx3qvjbwX4T8b6JPp8V3br4svJ4vJtXsDIsilYZwqRS6XeRgKi5e8AJbcNl8sexyH6YxzQyNhJEZuuFIJryb4d3H/Cr/AIhan8OrgeVouomfW/C0hPyCJnDXliPRoZZPMRf+eU6qoxC2Pzb+KS27eBvB/ibTP2bNL+Cq6ky6xoHjbRdeLSsBBIUCm3gVkco4nRZGRSYwzfIrkfb/AMK/HVz+1T8Ghbzalp+n/FrwfcW9yt9a5Nut6Iy9rfRrgMbS7hZsjAJjlmj4KmhRUfhA+pKK4/4a/ECD4jeGU1EWkmmalbyvZanpczAy6feRnEsDkdcHBDDh0ZHXKsDXYVQBRRRQAUUUUAFFFFABRRRQAUUUUAFFFFABXLfEDx1ZfDzwxc6vdRS3k29bez0+2ANxfXTnbFbxA9XdiAM8AZYkKCRt6tqlroel3eo6hdQ2On2cL3FxdXDhI4Y0Uszsx4CgAkk9AK8i8N3cXiK5ufjD41f+w/Dml2s02gWWpAxDTrLYfN1CdW+7PMmcAjMUJCfKzyggGJ4s8XP+zT8LdY8Y+IBba78TPE06KLVJQkV1fsrfZ7ON3I2WlugYlzgLHHNM3zM+fkP9n/4IzftDePdJ1TxRez67pN/Nc63dSzoYzf25kCT38ikAp9suIlt4IyFCWtnJxvVHqL4m+NZf2m/iYda8R3Unh7wqIJxb27uftGnaHGqTXJVAf+Pq4QwGQJllM9lB84N0o7b4E6H4g8A+PvjjI3jnQvgnp+nNpepXei2+iWksNjBJp4nWH5mAzDG21ygw7+Y/VzkA7T/go9qmjeIIfhR8LRcLZTXuuprd5JayKjabplrFJFLckA5UL5+5cDkQSY+6cezfsW+G5dK+Auk67d2cdjqnjK5uPFt5DFwqG9kMsKAdglubePHby8V8Q+IPDniX4pX+kav4r1G51Hxv8Q4bTSrO6nsooptN0vUppbezj8uPKxk6bFrlxKFP3rhM5KAn9S7Gzg02zgs7aJYLW3jWKKOMYVEUYCgegAAoAtUUUlAHDeG7W2h+J3i+eK8E11LbWImtfKZTCAJtp3Hht2T06Y5ruFNcP4b1e6vPiZ4t0+Vw1raW9k8SqqgqXE27JAyfujqeO1duMcYrKFrad3+Z1Ynm51zdl+SsPr4m/wCCiXw7OpXXhDXraIF9Yt7zwhcbFPmTzSKL3Toww+6Gu7NYifS5I74P2zXkP7V3gu+8cfAHxfa6O0ieINPtl1nSHhUGQX1m63UAX3Z4VX6Ma1OU88/Zji8MftJfsReD/Dt8FltrXSIfD92sUitLZ3lkqwrKpGQsgaKOZD6Mhxg18k+HL3xN+yX8WdJ1GCGS7a0ubrSZtLtk5uQrCa90pQT1dZE1GxyQx85oj5jyNjqvhJqWq/D3XNJ1jwT4y/4V/wDD3xnqiadqLvp8N3BY3c9sl5pExSQ4RZbO4gtHZcDzbZd3JOH/ABM+GV940+N/xHbxV4m0vxhBY6NoGn/8JOmmQ2kukz3U161reB4DuVEnhihmKspMM5LECFcAH0Z4x+Lmj+DfjN8G/GPhmdb3wp8V5Touo3lupa3uJPs5k06ccjbNuzESeTGSGGYk2/T1fj7reu67b/D8eHIZp4Z7DX4PFPh4wyqw0zxFbTOrw7UGAl032iAomI470qQEhuYSbPwv/bS+Kmuvrv2j46W50q1lf7DNqFpFpzSr9ouVARv7GvjNmOOF8sybfNC/MQSoB+vNFfkh42/aw+KXjj4Q2F+3xQ8RfC+w1a7itpNb1+0mmt54GtzKwtptP8OwMsuQcFJ8/uZOqkPXkT/td/HD4R+EvEl74e+L2s6x5N/Barc6pGdQjkQ3epxiSJdQSSWIFbaP5Ww2DhuQMAH7mUV8Rf8ABLz9pzxt+0h8P/GU3j3Xm8Qa5pGoQqs/2K3tQkMqNtUCFEB5jY5Izz1xjH27QAUUUUAFFFFABRRRQAUUUUAeB/tWWGo+Kofh94Ls9Lh1qz8Qa+y6hps+rS6Yl3Bb2VzcrE1xFG7oPNihf5Rz5e3gMSPk/wDbc8B+J7PwZpGjXvhU6ZYXw1O9uI1+JGrakl0LLTLm7RJI5ogoVZIo5eOWMQXcm4sPtX4rf8lc+Cv/AGG9Q/8ATTeV4v8A8FDf+QT4S/7Bviv/ANR2+oA8u8e/8E7tT8fRaNHdaRq9gNMjwptfijNL50plaVp38/SZMStK7yFk25Z2OMmsfQ/+CX66bq0t7qnhzUPFEUxRriy1j4lM0NyUxsMhi0eN2244BbHtX6UUUAflzH8PfE2qftmaRp9z4fnvb621HVWSzuviNqjLiDR9NVVFyIQ67PtsrhlXLee0ZwqAv9V/8Kj8Yf8ARPo//Dw67/8AI9cHpP8AykMsf+v/AMR/+mfw9X2vQB8yf8Kj8Yf9E+j/APDw67/8j0f8Kj8Yf9E+j/8ADw67/wDI9fTdFAHx9o/wp8T/APCb+IkXwjb3FwsNqZbNfinrkb24Ik2lphb5l3c4B+7t4+9XTf8ACpPF/wD0T+P/AMPDrv8A8j17D4c1a5vPid4vsZGBtra2smiUIoILibdlgMn7o6njtXcECsqdrfN/mdmKcudc29l+SsfM3/Co/GH/AET6P/w8Ou//ACPR/wAKi8X/APRPYv8Aw8Ou/wDyPX03RWpxn5T/ALNXwDvvGlj4w8BXXhD+3dAW3e0utLuviFqFtat9l1jUoUYIts6nb5UaqMADyFkGGkYDorn/AIJZXV1cX0i2/iCBL1fLnij+JabZIwCAjZ0MllAYgbieCfWvbf2Iv+SmfEH/AK7ap/6kmsV9k0Afmb48/Yhvfh98HIdJn8N3eoWSa1Yo8178SrqZ5I7q6tLWS3McenQxhHRYlyBlfLjY7/LCnkf2D/jB4z8J/DO/8N2nxFutN/srVJEtvDf/AAr3UvFalZIYp3kWezMbRh5pZm8tjkEk85yf0O/aR/5Jb/3HtB/9O9nX5c/sffHvxB8OR8QtBg8ReINE0k31tfWq6HHoO2S4ktlSUyNqksZOFhgwIiwHO4DK5AIP21v2lvi/8YPgvoJ8ReEY7XwsuttcWutx+Gr3SlknS1vItg+0XEob920z4HQx89CK+efGAk1b4R+LbyZyZlvbK4ci5iutzNqGsA5miURycv8AfjAVuqgAgV7D4q+L3iDxt+zT4U8L/FHxQumaDY+IGuLO78P6dp2p3+5re5VnlhTUIyF3TXI+4vAjIySFPlnivVtLm+F/xKtob+W5kkltZLY3Vt9muJVXWNRJaSEFvKfbIrFCx27sZPUgH6Af8EVo0/4Ur41kDsXbWIwyk8DEZxgduv6V+i9fnB/wRRtbpfg/4+uJGY2r6zDHEpQAblhy2DtBP31/iOOOB3/R+gAooooAKKKKACiiigAooooA8z+LHg3XvEmueCtX8OX+n2uq+H9Rmu44tUgkkgnElpNbspKMrKQJSwPPIxXkfx4+AHxb+OVrpkN5rfgvTvsNvqdupgtrs7heafPZsTlj90Tlh7j8K+mbz/j+tP8AeP8A6Cau1wYerKpUqxb0i7L7kynsjzDyfjR/z8+BP/Ae9/8Ajlczqni/4x6f8RNA8KH/AIQV31bTr/UFuBBe4jFtJaoVI387vtQ/75Ne715P8YPhH4n8eeJvDHiDwj4+k8Bavotve2bTJpEGoC4huWt2ZSspAUg2yHI55Nd5J8//AA++FHxT8W/HjWviXDqfhCC80PXtYsHs5Le7Mcjy2mnW7MMNnAWyQjnqze2PofyfjR/z8+BP/Ae9/wDjlXvgr8M9S+F/hnUbLWvE0ni3WdS1O41S81WSyjs/MklK8CKMlVACqODycnjOB6HQB5d5Pxo/5+fAn/gPe/8AxyjyfjR/z8+BP/Ae9/8Ajleo0UAeAaDp/wAVIPiD4nmttS8DvqcsFoLq3a3vcRqBL5ZHzDrlu56du/W+V8Z/+fnwJ/4D3v8A8crX8N6pNefE/wAXWUmzyLW2smj2oobL+dnLAZPQYyeOcdTXc8VlC1tO7/M68Vzc65t7L8lb8DzDyfjR/wA/PgT/AMB73/45R5Pxo/5+fAn/AID3v/xyvUaK1OQ+LPg/8M/ir8H/AI2avolrqfg++u9Z0u91h5Zre72RrJq9xcFAAwOd18R9EH1Prfw+8X/GTx7oN1qaHwNarBq2qaUY2t70kmzv57Qv/rOjGAt9GrY+K3wc8WeMPHel+KvB3xGm8BalbabLpdxt0a31FbiJpUkHEpGwhl7ZzkdMc9N8G/h7d/C7wHb6BqGuP4l1D7bf6hd6tJaJbG5nu7ya7kbykJVBvnYYHHHbpQBwXxA8D/GLx94a/sifUPA9tH9usr3zEtrzObe7iuAOX6EwgfQ1S/Yx/Zx1f9mT4e+IdC1zWLHWr3VNbfVRLp8TpHGptreEJ8/JOYCf+BCvoSmyfdNRPSLYHn/w/wDhjp2i/Cm38F6zFa+JNMK3EdzDe2itBcJJM8hR4m3Aj58YOQcVu+D/AId+Ffh7azW3hXwzo/hq3nYNLDo9hFaJIRnBYRqATyevqa2NL/49F+p/nVvPNcmDqSq4eE5btJlS0bQ6iiiu4kKKKKACiiigAooooAKKKKAMzU5Ghmt5RGzhWJIUZPQ06HU2mjD/AGeVc9mGDV8gN1FG0CvG+p1o151IVbRlray3sluacytZoqfbn/54SfkP8aPtz/8APCT8h/jVv8KX8K6PYV/+fv4IV12Kf25/+eEn5D/Gj7c//PCT8h/jVzHtRj2pewr/APP38AuuxT+3N/zwk/If415D8dviR4x8N3ei6R4Fgiu/El5a3l7HpcmkveyXSw+Uqgt9ohjgi3zIryO5I3ptU/MV9pOPSuT8afCnwb8SZLKTxV4W0fxFJZLIts+qWUc7Qh9u8IWB2htiZx12j0rSnSqxknOd16Bddj5g+I3xy8YfB74teKb5X8P6nFq2kyGOziglaPTri2gkaOOW5Eg8yQt5rGIRplFc70Mfz/QfwZ8dax4w8J3kmtrb3Gq6bq+o6PPdWEJhguDa3UkAlWNncpuEYJXc2CTzWRofgLwlqXxg8eS3HhHw+95Lp1rbXF5/ZcHn3MUySLLHLJt3OjLFGpViRhQK9I8O+GdI8H6La6RoWm2ej6TartgsbGBYYYgSSQqKABkkn6kmtJRlUjaEuXVnTibqoubsvyVvwLn25/8AnhJ+Q/xo+3P/AM8JPyH+NXPwo/CsPYV/+fv4I5rrsU/tz/8APCT8h/jR9uf/AJ4SfkP8auY9qMe1L2Ff/n7+AXXYp/bn/wCeEn5D/Gq9xqjQ4H2aZt3Hyrn+tafTtSbPbNZVMLiZwcVWs/QakuxV0zd9jTKlTk8N161cpFGPal967cNR+r0Y0r3srXIbu7i0UUV1CCiiigAooooAKKKKACiiigAooooAKKKKACiiigAoopKAMDTPC8Wm+KtY1pJXaXUooInjONq+VvwR9d5/Kt1V2gCj09aXcaErbFznKbvJ32X3IdRRRQQFFFFABRRRQAUUUUAFFFFABRRRQAUUUUAFFFFABRRRQAUUUUAFFFFABRRRQAUUUUAFFFFABRRRQAUUUUAFFFFABRRRQAUUUUAFFFFABRRRQB//2Q==;" vertex="1" parent="1">
          <mxGeometry x="420" y="90" width="152.31" height="550" as="geometry" />
        </mxCell>
        <mxCell id="r0HrAS1YgWzg4IYTFcv2-4" value="" style="endArrow=none;dashed=1;html=1;" edge="1" parent="1">
          <mxGeometry width="50" height="50" relative="1" as="geometry">
            <mxPoint x="592" y="487" as="sourcePoint" />
            <mxPoint x="492" y="487" as="targetPoint" />
          </mxGeometry>
        </mxCell>
        <mxCell id="r0HrAS1YgWzg4IYTFcv2-5" value="" style="endArrow=none;dashed=1;html=1;" edge="1" parent="1">
          <mxGeometry width="50" height="50" relative="1" as="geometry">
            <mxPoint x="590" y="320" as="sourcePoint" />
            <mxPoint x="490" y="320" as="targetPoint" />
          </mxGeometry>
        </mxCell>
        <mxCell id="r0HrAS1YgWzg4IYTFcv2-6" value="" style="endArrow=none;dashed=1;html=1;" edge="1" parent="1">
          <mxGeometry width="50" height="50" relative="1" as="geometry">
            <mxPoint x="592" y="203" as="sourcePoint" />
            <mxPoint x="492" y="203" as="targetPoint" />
          </mxGeometry>
        </mxCell>
        <mxCell id="r0HrAS1YgWzg4IYTFcv2-7" value="" style="endArrow=none;dashed=1;html=1;" edge="1" parent="1">
          <mxGeometry width="50" height="50" relative="1" as="geometry">
            <mxPoint x="592" y="124" as="sourcePoint" />
            <mxPoint x="492" y="124" as="targetPoint" />
          </mxGeometry>
        </mxCell>
        <mxCell id="r0HrAS1YgWzg4IYTFcv2-8" value="" style="endArrow=classic;startArrow=classic;html=1;" edge="1" parent="1">
          <mxGeometry width="50" height="50" relative="1" as="geometry">
            <mxPoint x="566" y="490" as="sourcePoint" />
            <mxPoint x="566" y="320" as="targetPoint" />
          </mxGeometry>
        </mxCell>
        <mxCell id="r0HrAS1YgWzg4IYTFcv2-13" value="&lt;div&gt;d_se&lt;/div&gt;" style="text;html=1;strokeColor=none;fillColor=white;align=center;verticalAlign=middle;whiteSpace=wrap;rounded=0;" vertex="1" parent="1">
          <mxGeometry x="542" y="390" width="40" height="20" as="geometry" />
        </mxCell>
        <mxCell id="r0HrAS1YgWzg4IYTFcv2-26" value="" style="group" vertex="1" connectable="0" parent="1">
          <mxGeometry x="545" y="122" width="40" height="80" as="geometry" />
        </mxCell>
        <mxCell id="r0HrAS1YgWzg4IYTFcv2-10" value="" style="endArrow=classic;startArrow=classic;html=1;" edge="1" parent="r0HrAS1YgWzg4IYTFcv2-26">
          <mxGeometry width="50" height="50" relative="1" as="geometry">
            <mxPoint x="21" y="80" as="sourcePoint" />
            <mxPoint x="21" as="targetPoint" />
          </mxGeometry>
        </mxCell>
        <mxCell id="r0HrAS1YgWzg4IYTFcv2-18" value="&lt;div&gt;d_wt&lt;/div&gt;" style="text;html=1;strokeColor=none;fillColor=white;align=center;verticalAlign=middle;whiteSpace=wrap;rounded=0;" vertex="1" parent="r0HrAS1YgWzg4IYTFcv2-26">
          <mxGeometry y="26" width="40" height="20" as="geometry" />
        </mxCell>
        <mxCell id="r0HrAS1YgWzg4IYTFcv2-36" value="" style="group" vertex="1" connectable="0" parent="1">
          <mxGeometry x="545" y="200" width="40" height="120" as="geometry" />
        </mxCell>
        <mxCell id="r0HrAS1YgWzg4IYTFcv2-37" value="" style="endArrow=classic;startArrow=classic;html=1;" edge="1" parent="r0HrAS1YgWzg4IYTFcv2-36">
          <mxGeometry width="50" height="50" relative="1" as="geometry">
            <mxPoint x="21" y="120" as="sourcePoint" />
            <mxPoint x="21" as="targetPoint" />
          </mxGeometry>
        </mxCell>
        <mxCell id="r0HrAS1YgWzg4IYTFcv2-38" value="&lt;div&gt;d_ew&lt;/div&gt;" style="text;html=1;strokeColor=none;fillColor=white;align=center;verticalAlign=middle;whiteSpace=wrap;rounded=0;" vertex="1" parent="r0HrAS1YgWzg4IYTFcv2-36">
          <mxGeometry y="39" width="40" height="30" as="geometry" />
        </mxCell>
        <mxCell id="r0HrAS1YgWzg4IYTFcv2-39" value="" style="group" vertex="1" connectable="0" parent="1">
          <mxGeometry x="545" y="490" width="40" height="110" as="geometry" />
        </mxCell>
        <mxCell id="r0HrAS1YgWzg4IYTFcv2-40" value="" style="endArrow=classic;startArrow=classic;html=1;" edge="1" parent="r0HrAS1YgWzg4IYTFcv2-39">
          <mxGeometry width="50" height="50" relative="1" as="geometry">
            <mxPoint x="21" y="110.00000000000001" as="sourcePoint" />
            <mxPoint x="21" as="targetPoint" />
          </mxGeometry>
        </mxCell>
        <mxCell id="r0HrAS1YgWzg4IYTFcv2-41" value="&lt;div&gt;d_bs&lt;/div&gt;" style="text;html=1;strokeColor=none;fillColor=white;align=center;verticalAlign=middle;whiteSpace=wrap;rounded=0;" vertex="1" parent="r0HrAS1YgWzg4IYTFcv2-39">
          <mxGeometry y="35.75" width="40" height="27.500000000000004" as="geometry" />
        </mxCell>
      </root>
    </mxGraphModel>
  </diagram>
</mxfile>
